<?xml version="1.0" ?><svg id="Layer_1" style="enable-background:new 0 0 62 62;" version="1.1" viewBox="0 0 62 62" xml:space="preserve" xmlns="http://www.w3.org/2000/svg" xmlns:xlink="http://www.w3.org/1999/xlink"><style type="text/css">
	.st0{fill:#5FD2FF;}
	.st1{fill:#FFFFFF;}
	.st2{fill:#0082ED;}
	.st3{fill:#2BA8FC;}
	.st4{fill:#CECECE;}
	.st5{fill:#F92B75;}
	.st6{fill:#3BB0FF;}
	.st7{fill:#CE004F;}
	.st8{fill:none;stroke:#ED0C68;stroke-width:5;stroke-linecap:round;stroke-linejoin:round;stroke-miterlimit:10;}
	.st9{fill:#ED0C68;}
	.st10{fill:#78DED4;}
	.st11{fill:#1E5363;}
	.st12{fill:#54C8E8;}
	.st13{fill:#F4F4F4;}
	.st14{fill:#0C82EB;}
	.st15{fill:#00B2E3;}
	.st16{fill:#68A2B9;}
	.st17{fill:#A2C5D3;}
	.st18{fill:#76777A;}
	.st19{fill:#A7A8A9;}
	.st20{fill:#D6D6D6;}
	.st21{fill:none;stroke:#F92B75;stroke-width:5;stroke-linecap:round;stroke-linejoin:round;stroke-miterlimit:10;}
	.st22{fill:#FD4A5C;}
	.st23{fill:#FF8E9F;}
	.st24{fill:none;stroke:#F458A3;stroke-width:5;stroke-linecap:round;stroke-linejoin:round;stroke-miterlimit:10;}
	.st25{fill:#FFB259;}
	.st26{fill:#F32735;}
	.st27{fill:#FF9E18;}
	.st28{fill:#FFC27A;}
	.st29{fill:#FFC56D;}
	.st30{fill:none;stroke:#FD4A5C;stroke-width:5;stroke-linecap:round;stroke-linejoin:round;stroke-miterlimit:10;}
	.st31{fill:#0069A7;}
	.st32{fill:#D8D8D8;}
	.st33{fill:#8CB7C9;}
	.st34{fill:#65BAAF;}
	.st35{fill:#00AF9A;}
	.st36{fill:#00C4B3;}
	.st37{fill:#19D3C5;}
	.st38{fill:none;stroke:#54C8E8;stroke-width:5;stroke-linecap:round;stroke-linejoin:round;stroke-miterlimit:10;}
	.st39{fill:#8331A7;}
	.st40{fill:#009383;}
	.st41{fill:#98989A;}
	.st42{fill:#636569;}
	.st43{fill:#898A8D;}
	.st44{fill:#FFB548;}
	.st45{fill:none;stroke:#FFB548;stroke-width:5;stroke-linecap:round;stroke-linejoin:round;stroke-miterlimit:10;}
	.st46{fill:#ED40A9;}
	.st47{fill:#CB007B;}
	.st48{fill:#E50695;}
	.st49{fill:#D7282F;}
	.st50{fill:#E5E5E5;}
	.st51{fill:#FFA4B4;}
	.st52{fill:#F6A7D7;}
	.st53{fill:#F478C4;}
	.st54{fill:#E0C7E6;}
	.st55{fill:#B980D0;}
	.st56{fill:#D9B7E2;}
	.st57{fill:#BADF93;}
	.st58{fill:#4C9C2E;}
	.st59{fill:#3DAE2B;}
	.st60{fill:#AADA91;}
	.st61{fill:#6ABF4B;}
	.st62{fill:#EFB8A9;}
	.st63{fill:#FECB8B;}
	.st64{fill:#BDE8EF;}
	.st65{fill:#CCA1DD;}
	.st66{fill:#B2B2B2;}
	.st67{fill:none;stroke:#FF8300;stroke-width:5;stroke-linecap:round;stroke-linejoin:round;stroke-miterlimit:10;}
	.st68{fill:none;stroke:#FF9E18;stroke-width:5;stroke-linecap:round;stroke-linejoin:round;stroke-miterlimit:10;}
	.st69{fill:#96DAEA;}
	.st70{fill:#FF8300;}
	.st71{fill:none;stroke:#6ABF4B;stroke-width:5;stroke-linecap:round;stroke-linejoin:round;stroke-miterlimit:10;}
	.st72{fill:none;}
	.st73{fill:#444444;}
	.st74{fill:#FDCF85;}
</style><g><rect class="st13" height="39.84" width="57.08" x="2.5" y="11.08"/><path class="st14" d="M59.58,53.34H2.5c-1.34,0-2.42-1.08-2.42-2.42V11.08c0-1.34,1.08-2.42,2.42-2.42h57.08   c1.34,0,2.42,1.08,2.42,2.42v39.84C62,52.26,60.92,53.34,59.58,53.34z M4.92,48.5h52.24V13.5H4.92V48.5z"/><path class="st14" d="M2.5,53.34c-0.62,0-1.24-0.24-1.71-0.71c-0.94-0.94-0.94-2.48,0-3.42l19.51-19.5c0.95-0.94,2.48-0.94,3.42,0   c0.94,0.94,0.94,2.48,0,3.42L4.21,52.63C3.74,53.1,3.12,53.34,2.5,53.34z"/><path class="st15" d="M2.5,53.42c-0.64,0-1.28-0.24-1.77-0.73c-0.98-0.98-0.98-2.56,0-3.54l19.51-19.5c0.98-0.98,2.56-0.98,3.54,0   c0.98,0.98,0.98,2.56,0,3.54L4.27,52.69C3.78,53.18,3.14,53.42,2.5,53.42z"/><path class="st14" d="M59.58,53.34c-0.62,0-1.24-0.24-1.71-0.71l-19.51-19.5c-0.94-0.94-0.95-2.48,0-3.42   c0.94-0.94,2.48-0.94,3.42,0l19.51,19.5c0.94,0.94,0.95,2.48,0,3.42C60.82,53.1,60.2,53.34,59.58,53.34z"/><path class="st16" d="M31.04,41.95c-1.44,0-2.84-0.6-3.84-1.64L0.76,12.75c-0.67-0.7-0.86-1.73-0.48-2.62   C0.66,9.24,1.53,8.66,2.5,8.66h57.08c0.97,0,1.84,0.58,2.22,1.47c0.38,0.89,0.19,1.92-0.48,2.62L34.88,40.31v0   C33.88,41.35,32.48,41.95,31.04,41.95z M8.18,13.5l22.52,23.47c0.24,0.25,0.46,0.25,0.7,0v0L53.91,13.5H8.18z"/><path class="st15" d="M2.5,41.14c-1.38,0-2.5-1.12-2.5-2.5V11.08c0-1.38,1.12-2.5,2.5-2.5h27.1c1.38,0,2.5,1.12,2.5,2.5   s-1.12,2.5-2.5,2.5H5.01v25.06C5.01,40.02,3.89,41.14,2.5,41.14z"/><path class="st15" d="M2.5,53.43c-1.38,0-2.5-1.12-2.5-2.5V38.64c0-1.38,1.12-2.5,2.5-2.5s2.5,1.12,2.5,2.5v12.29   C5.01,52.3,3.89,53.43,2.5,53.43z"/><path class="st17" d="M28.95,41.06c-0.64,0-1.27-0.25-1.75-0.74L0.76,12.75c-0.67-0.7-0.86-1.73-0.48-2.62   C0.66,9.24,1.53,8.66,2.5,8.66h28.54c1.34,0,2.42,1.08,2.42,2.42s-1.08,2.42-2.42,2.42H8.18l22.52,23.47   c0.93,0.96,0.89,2.5-0.07,3.42C30.15,40.83,29.55,41.06,28.95,41.06z"/></g></svg>