<?xml version="1.0" ?><svg id="Layer_1" style="enable-background:new 0 0 52 52;" version="1.1" viewBox="0 0 52 52" xml:space="preserve" xmlns="http://www.w3.org/2000/svg" xmlns:xlink="http://www.w3.org/1999/xlink"><style type="text/css">
	.st0{fill:#231F20;}
</style><g><g><path class="st0" d="M29.2495308,6.9560924c0.690897,1.0415664,1.7461357,2.1955714,2.2038021,3.3590312    c0.9509335,2.4174309-0.0821266,4.1917133-1.1560993,6.1430235c-0.5420647,0.9848824-1.4023933,2.99757-2.3382072,3.6420727    c-2.6063576,1.7950191-4.0401859-0.3651409-5.3937721-1.7523575c-2.5103054-2.5726738-3.983181-6.5356035-1.1677494-9.6397057    c1.1233578-1.2385373,3.0584564-2.2032456,4.6976242-2.5052409c2.9000607-0.5342999,2.8497086-0.064743,3.8407345,1.9307284    c0.6441021,1.2969275,2.5854912,0.1584511,1.9428082-1.1356177c-1.0102615-2.0342035-1.4947701-3.067704-3.913435-3.18185    c-2.7085972-0.1278291-5.3439522,1.0170174-7.4239407,2.6861315c-3.8348331,3.0773096-3.7521763,8.8052473-0.6044903,12.3650322    c3.0310555,3.4278812,6.4840088,7.0692234,9.9650288,2.3684978c1.7373714-2.3461246,3.7799664-5.2965889,4.1959934-8.2578878    c0.399826-2.8460093-1.4228897-4.9223709-2.905489-7.1574759C30.3955441,4.6192613,28.4460449,5.7447929,29.2495308,6.9560924    L29.2495308,6.9560924z"/></g><g><path class="st0" d="M33.4227982,13.4721794c1.9629822,0.818285,3.3253822,2.6325359,2.6130104,4.8521233    c-0.3247223,1.011755-1.174118,1.5114822-2.1172562,1.8198299c-0.4654999,0.1521912-1.6191292,0.5734901-2.0995731,0.3740253    c0.2619152,0.2619152,0.5238285,0.5238304,0.7857456,0.7857456c-0.2854652-1.0449772,0.831501-3.3153286,1.2040291-4.3400955    c0.4905777-1.3495111,1.1659164-2.5586033,1.3524895-3.9922228c0.1863136-1.4316387-2.065464-1.4180021-2.25,0    c-0.2269745,1.7440834-1.3905811,3.6552458-1.9104519,5.3501501c-0.3220043,1.0498123-1.0157928,2.4952831-0.5656967,3.580307    c0.7428913,1.7908478,3.9260006,0.5911827,5.1132603,0.0054798c2.2866402-1.128046,3.0866623-3.2591553,2.7988968-5.7212505    c-0.2920151-2.4984455-2.1231918-3.9653311-4.3263168-4.8837194    C32.6860161,10.7460804,32.1035728,12.9222507,33.4227982,13.4721794L33.4227982,13.4721794z"/></g><g><path class="st0" d="M16.7351074,13.9043417c0.9881916,0.9317303,1.1210632,2.9511271,1.5424061,4.2045755    c0.3938255,1.1715889,1.4796314,2.3351097,1.6248627,3.5314045c0.1857319-0.3238029,0.3714619-0.647604,0.5571918-0.971405    c-2.6533604,1.2918491-5.1571226-0.8900852-4.9620552-3.6248741c0.0783691-1.0987139,0.495883-1.5176706,1.3083382-2.1462421    c0.5626965-0.4353409,0.8302269-0.8066025,1.0853539-1.4664478c0.5225277-1.3514347-1.6520958-1.936656-2.1696272-0.5981388    c-0.1743031,0.4508066-1.0831776,0.7421017-1.428688,1.0737171c-0.4973431,0.4773426-0.7820015,1.0445318-0.924387,1.7143354    c-0.3163948,1.4883718-0.1434917,3.2679453,0.4894323,4.6502008c1.3086481,2.8579788,5.0443153,3.6513767,7.7372513,2.3402576    c0.3173485-0.1545086,0.6007137-0.6128998,0.5571899-0.9714031c-0.2118301-1.744873-1.3728905-3.0986576-1.8964901-4.7628002    c-0.4902954-1.5582867-0.6913185-3.3964605-1.9297886-4.5641699    C17.2729893,11.3204136,15.6789074,12.9084892,16.7351074,13.9043417L16.7351074,13.9043417z"/></g><g><path class="st0" d="M18.9801331,15.1643324c1.0297661,0.9693079,2.0716496,1.8692827,3.4974613,2.1621447    c1.3852539,0.2845306,2.7679615,0.0173893,3.98489-0.679945c1.2561111-0.7197866,0.1240501-2.6646347-1.1356182-1.9428091    c-1.8568497,1.0640287-3.3642731,0.1793947-4.755743-1.1303806C19.5172501,12.5813437,17.92309,14.1693516,18.9801331,15.1643324    L18.9801331,15.1643324z"/></g><g><path class="st0" d="M15.4690552,15.4373608C16.3550625,9.553154,20.4976158,0.9863013,27.8831024,3.7375572    c1.7361546,0.6467555,3.7827911,1.8915904,5.2825928,3.0643899c2.7021904,2.1130319,2.4228401,4.8950467,2.596859,8.1698818    c0.0765381,1.4403868,2.3270149,1.449399,2.25,0c-0.1520958-2.8622255,0.5501823-7.0996156-1.9455185-9.1669006    c-1.5964928-1.3224344-3.9122887-2.629847-5.6519947-3.7764831c-1.0582123-0.6974651-1.965723-1.1357552-3.2307186-1.2679682    C19.0541801-0.0892561,14.3345461,7.9647222,13.299427,14.839222    C13.0861416,16.2557068,15.2538452,16.8666267,15.4690552,15.4373608L15.4690552,15.4373608z"/></g><g><path class="st0" d="M16.1792107,27.4190044c4.2553349,0.0092182,8.5106716,0.0184364,12.7660065,0.0276566    c3.2255058,0.0069866,8.9357605-0.9023247,11.8166924,1.0288124c3.776165,2.5312271,2.6450806,10.9779377,2.6352882,14.8239231    c-0.007618,2.9919167,1.0859375,4.8564415-2.6146698,5.4154129c-1.8111267,0.2735672-3.9060707-0.039978-5.7262344-0.058609    c-3.8174896-0.0390701-7.6349812-0.0781403-11.4524708-0.1172104c-2.2268696-0.022789-4.4537373-0.0455818-6.6806068-0.0683708    c-1.4843359-0.0151939-5.4700937,0.6748314-6.6806068-0.0683746c-2.7323985-1.6775818-1.5264673-7.4561882-1.5274515-10.3884811    c-0.0007515-2.242733-0.2871094-5.3874283,0.7587328-7.4575768c1.7766714-3.5167561,5.8829279-3.3379478,9.2067108-3.2751923    c1.4484291,0.0273476,1.4484673-2.2226524,0-2.25c-4.8571234-0.0917053-8.587348-0.3402691-11.1495199,4.3895741    C5.0859313,33.9343872,6.451097,41.1957703,6.5387454,46.122448c0.0878997,4.9408112,0.7891178,4.4999657,5.6126084,4.5493317    c7.6349792,0.0781403,15.2699585,0.1562805,22.9049397,0.2344208c2.9242706,0.0299301,9.0336113,1.6476364,10.4285164-1.8859367    c0.866127-2.1940765,0.1741714-6.1812363,0.1574898-8.5274582c-0.0201035-2.8276024,0.313488-6.2182541-0.2599869-9.0013256    c-0.8419724-4.0861187-4.2012138-5.8023872-8.1276131-6.200901c-6.8918095-0.6994934-14.1486282-0.1065693-21.075489-0.1215744    C14.7313147,25.1658669,14.729187,27.415863,16.1792107,27.4190044L16.1792107,27.4190044z"/></g></g></svg>